Tarzan Aur Jadui Chirag [1966] Hindi Bollywood VCDRip ShahBros

General
Complete name                            : Tarzan Aur Jadui Chirag [1966] Hindi 

Bollywood VCDRip ShahBros.mp4
Format                                   : MPEG-4
Format profile                           : Base Media / Version 2
Codec ID                                 : mp42
File size                                : 772 MiB
Duration                                 : 1h 34mn
Overall bit rate mode                    : Variable
Overall bit rate                         : 1 141 Kbps
Encoded date                             : UTC 2012-05-13 16:58:55
Tagged date                              : UTC 2012-05-13 16:59:11
Writing application                      : mp4creator 1.4.4

Video
ID                                       : 1
Format                                   : AVC
Format/Info                              : Advanced Video Codec
Format profile                           : Baseline@L1.3
Format settings, CABAC                   : No
Format settings, ReFrames                : 2 frames
Codec ID                                 : avc1
Codec ID/Info                            : Advanced Video Coding
Duration                                 : 1h 34mn
Bit rate mode                            : Variable
Bit rate                                 : 1 024 Kbps
Width                                    : 720 pixels
Height                                   : 480 pixels
Display aspect ratio                     : 3:2
Frame rate mode                          : Constant
Frame rate                               : 30.000 fps
Standard                                 : NTSC
Color space                              : YUV
Chroma subsampling                       : 4:2:0
Bit depth                                : 8 bits
Scan type                                : Progressive
Bits/(Pixel*Frame)                       : 0.099
Stream size                              : 690 MiB (89%)
Writing library                          : x264 core 116 r2074 2641b9e
Language                                 : Hindi
Encoded date                             : UTC 2012-05-13 16:58:55
Tagged date                              : UTC 2012-05-13 16:59:08

Audio
ID                                       : 2
Format                                   : MPEG Audio
Format version                           : Version 1
Format profile                           : Layer 3
Mode                                     : Joint stereo
Mode extension                           : MS Stereo
Codec ID                                 : 6B
Duration                                 : 1h 34mn
Bit rate mode                            : Variable
Bit rate                                 : 118 Kbps
Maximum bit rate                         : 128 Kbps
Channel(s)                               : 2 channels
Sampling rate                            : 44.1 KHz
Compression mode                         : Lossy
Stream size                              : 79.9 MiB (10%)
Language                                 : English
Encoded date                             : UTC 2012-05-13 16:59:08
Tagged date                              : UTC 2012-05-13 16:59:11
Material_Duration                        : 5671837
Material_StreamSize                      : 83815577

Seed And Enjoy :)